HIERARCHY
ROOT Hips
{
  OFFSET 263.056 91.6644 -274.608
  CHANNELS 6 Xposition Yposition Zposition Zrotation Xrotation Yrotation
  JOINT LeftUpLeg
  {
    OFFSET 8.64259 1.95398 -2.38835
    CHANNELS 3 Zrotation Xrotation Yrotation
    JOINT LeftLeg
    {
      OFFSET 43.7702 0 0
      CHANNELS 3 Zrotation Xrotation Yrotation
      JOINT LeftFoot
      {
        OFFSET 40.6238 0 0
        CHANNELS 3 Zrotation Xrotation Yrotation
        JOINT LeftToeBase
        {
          OFFSET 12.7242 0 0
          CHANNELS 3 Zrotation Xrotation Yrotation
          End Site
          {
            OFFSET 0 0 0
          }
        }
      }
    }
  }
  JOINT RightUpLeg
  {
    OFFSET -8.2249 1.95398 -2.59336
    CHANNELS 3 Zrotation Xrotation Yrotation
    JOINT RightLeg
    {
      OFFSET 43.5653 0 0
      CHANNELS 3 Zrotation Xrotation Yrotation
      JOINT RightFoot
      {
        OFFSET 40.6238 0 0
        CHANNELS 3 Zrotation Xrotation Yrotation
        JOINT RightToeBase
        {
          OFFSET 12.7242 0 0
          CHANNELS 3 Zrotation Xrotation Yrotation
          End Site
          {
            OFFSET 0 0 0
          }
        }
      }
    }
  }
  JOINT Spine
  {
    OFFSET 0.165834 0.87714 6.61349
    CHANNELS 3 Zrotation Xrotation Yrotation
    JOINT Spine1
    {
      OFFSET 7.38963 1.71661e-005 0
      CHANNELS 3 Zrotation Xrotation Yrotation
      JOINT Spine2
      {
        OFFSET 11.9445 1.14441e-005 0
        CHANNELS 3 Zrotation Xrotation Yrotation
        JOINT Spine3
        {
          OFFSET 14.7254 4.19617e-005 0
          CHANNELS 3 Zrotation Xrotation Yrotation
          JOINT Spine4
          {
            OFFSET 10.9679 0 0
            CHANNELS 3 Zrotation Xrotation Yrotation
            JOINT RightShoulder
            {
              OFFSET 2.46616 -1.6653 3.69651
              CHANNELS 3 Zrotation Xrotation Yrotation
              JOINT RightArm
              {
                OFFSET 13.0012 0 0
                CHANNELS 3 Zrotation Xrotation Yrotation
                JOINT RightForeArm
                {
                  OFFSET 28.7848 1.52588e-005 0
                  CHANNELS 3 Zrotation Xrotation Yrotation
                  JOINT RightHand
                  {
                    OFFSET 26.5688 1.52588e-005 0
                    CHANNELS 3 Zrotation Xrotation Yrotation
                    End Site
                    {
                      OFFSET 0 0 0
                    }
                  }
                }
              }
            }
            JOINT LeftShoulder
            {
              OFFSET 2.38034 -1.29275 -3.7523
              CHANNELS 3 Zrotation Xrotation Yrotation
              JOINT LeftArm
              {
                OFFSET 16.3182 6.10352e-005 0
                CHANNELS 3 Zrotation Xrotation Yrotation
                JOINT LeftForeArm
                {
                  OFFSET 27.0901 0 0
                  CHANNELS 3 Zrotation Xrotation Yrotation
                  JOINT LeftHand
                  {
                    OFFSET 24.5451 1.52588e-005 0
                    CHANNELS 3 Zrotation Xrotation Yrotation
                    End Site
                    {
                      OFFSET 0 0 0
                    }
                  }
                }
              }
            }
            JOINT Neck
            {
              OFFSET 5.0226 -0.0266342 0
              CHANNELS 3 Zrotation Xrotation Yrotation
              JOINT Head
              {
                OFFSET 6.69364 2.86102e-005 0
                CHANNELS 3 Zrotation Xrotation Yrotation
                End Site
                {
                  OFFSET 0 0 0
                }
              }
            }
          }
        }
      }
    }
  }
}
MOTION
Frames:	14
Frame Time:	0.0416667
-38.2076 88.1511 -41.5625 54.3157 -68.0143 37.0017 -174.762 1.22052 90.2339 -48.8633 21.2083 0.256382 42.1761 -11.2015 -0.20924 39.8662 12.8585 4.92096 172.66 40.8774 92.1404 -52.1143 26.5216 6.37562 81.4811 -7.09899 -3.01671 31.7868 -0.321692 14.345 0.130632 7.85593 -89.5229 11.1607 0.481674 0.900869 -0.510454 0.52087 0.878797 -23.0435 0.18867 1.00397 -3.03081 0.188677 1.00397 79.2962 -54.0096 -115.348 22.4807 -16.3637 27.3971 -18.7964 -7.8473 -67.6255 -22.4464 -1.20811 1.75487 -97.7817 -41.8973 64.2719 -38.3214 8.98401 22.8587 12.4619 1.3741 -73.8453 26.2102 2.3819 5.29509 9.83795 -14.3855 10.7127 8.12276 -16.6051 -2.71712 
-36.6968 86.8136 -34.1454 50.2462 -70.3359 34.7263 -175.436 10.934 91.0839 -66.6385 21.5785 0.355625 43.1564 -10.5233 2.19889 39.8212 12.9963 6.58393 173.416 34.806 95.3213 -53.0767 29.1325 5.19972 87.3533 -8.93104 -3.35099 35.645 0.380197 14.0423 0.297586 8.18168 -89.8995 10.5107 0.638954 0.141472 -1.16012 0.64455 0.113199 -23.6964 0.566891 0.326962 -3.68371 0.56689 0.326966 78.405 -54.3808 -116.46 16.1574 -14.7588 17.5814 -21.6025 -7.73672 -69.462 -26.6032 -1.1631 0.873601 -98.2279 -42.5781 63.8391 -40.6682 9.5588 24.3083 8.62448 2.88084 -63.1564 30.0974 2.81316 5.58541 12.1353 -13.6121 11.943 9.12231 -16.3118 -2.50629 
-35.5749 85.9823 -26.6372 40.1893 -71.8071 26.0362 -175.736 22.8908 91.9401 -79.1559 18.6355 0.350043 44.1346 -9.40373 3.97808 38.6311 11.4085 5.25814 174.001 28.0072 97.0687 -49.5881 29.8272 4.66909 92.5702 -11.8679 -3.79836 38.0083 0.824123 13.9294 0.596643 8.29348 -90.0966 10.2888 1.14457 -0.290468 -1.38174 1.13068 -0.340583 -23.9209 1.17895 0.0669906 -3.90829 1.17894 0.0669856 78.923 -51.3062 -116.945 15.0507 -12.7669 8.68958 -26.1791 -5.84703 -74.0252 -29.4105 -1.68118 2.64714 -98.2957 -42.3828 63.6539 -43.8183 10.857 27.1332 6.78253 4.99992 -55.6707 32.0617 3.25576 6.39966 14.2123 -13.1073 12.6112 9.15717 -16.1199 -2.05759 
-35.2429 85.9974 -18.4934 25.0931 -71.9344 10.4511 -174.068 34.9286 90.9532 -83.7379 15.3499 -0.0730354 46.391 -7.80766 3.80531 36.6561 9.06152 6.17292 174.959 21.251 95.8016 -43.7428 25.5826 3.66303 92.748 -12.0623 -3.82821 42.4681 1.6529 13.7301 1.12393 8.19551 -89.9466 10.4862 2.26338 -0.0946312 -1.18276 2.25701 -0.194209 -23.733 2.18712 0.590308 -3.72034 2.18713 0.590316 81.7422 -47.413 -114.295 17.7011 -11.3291 1.68833 -28.2319 -1.15268 -81.4328 -29.391 -1.72403 2.82321 -97.7111 -41.769 64.3335 -46.4021 13.1334 32.2002 8.15828 7.50399 -55.6242 29.2625 2.92323 6.22022 15.7071 -12.9705 12.8096 7.8245 -16.0893 -1.33477 
-35.3317 87.2444 -9.60334 12.3937 -72.4567 -3.02032 -171.872 42.4657 89.1946 -79.8028 14.8665 -0.830493 49.393 -6.34382 3.79774 36.7402 9.31433 9.16264 175.808 12.2246 93.3611 -35.5484 17.9783 1.92631 84.7839 -9.33958 -3.60958 48.7758 2.6908 13.0533 1.63894 8.1419 -89.6539 10.588 3.42345 0.3798 -1.07848 3.43684 0.228588 -23.6451 3.15088 1.3921 -3.63242 3.15089 1.39211 83.327 -45.5082 -112.569 20.1075 -12.0576 -2.68391 -31.5912 3.69394 -87.5124 -29.1997 -1.94961 3.86635 -96.5176 -40.2761 65.6663 -49.5044 14.2805 39.0998 8.79595 6.40549 -60.1702 27.1589 2.23932 4.46326 14.9356 -14.4046 11.2816 7.56654 -17.0299 -1.74692 
-35.4217 89.2948 0.0171818 6.6616 -71.9368 -9.2968 -171.147 46.9546 87.0807 -68.4294 14.4493 -1.74273 51.8828 -5.4417 2.66785 37.2905 10.0925 10.0807 176.162 4.08539 89.8202 -26.0255 8.45114 0.141459 68.7416 -4.31098 -2.32506 52.9449 3.45632 12.7079 1.90315 8.02054 -89.3927 10.8225 4.06992 0.828412 -0.842278 4.10243 0.648203 -23.4181 3.63259 2.01471 -3.4055 3.63259 2.0147 84.5521 -42.7632 -111.653 22.9871 -14.1593 -4.81632 -34.383 8.3096 -92.8399 -28.8663 -2.08751 4.627 -95.078 -38.3858 67.3131 -52.1077 14.2223 43.9446 8.67074 4.59279 -64.0154 26.3544 2.0797 4.08965 15.635 -15.1581 10.2073 5.79517 -17.5532 -2.47779 
-35.0452 90.8382 9.89185 6.6145 -70.723 -9.93629 -170.954 49.553 84.6201 -52.353 14.9687 -3.18908 52.1313 -6.51847 0.0988493 39.3669 12.9842 11.4392 175.213 -1.93276 87.5857 -18.2094 2.42133 -0.65173 48.6754 1.48138 1.44823 44.4658 2.38966 18.6714 1.98719 7.83593 -89.2105 11.1847 4.32207 1.1481 -0.47939 4.3684 0.956417 -23.0571 3.77703 2.39546 -3.0444 3.77702 2.39546 84.4578 -40.6655 -112.629 26.0202 -16.3712 -3.02844 -36.3492 12.6304 -98.4825 -29.7907 -2.45634 5.92843 -95.8137 -37.06 65.5572 -53.2801 11.9626 46.62 8.65821 3.06184 -66.6814 26.5297 1.84047 3.11302 16.8546 -15.4769 10.7149 3.88551 -18.116 -3.5357 
-34.7095 92.1427 20.1106 4.46999 -70.0409 -11.008 -171.888 48.7644 84.4981 -33.5261 21.6703 -4.89927 51.9512 -5.69263 4.57476 41.9703 16.5907 12.162 176.722 -6.55964 87.8607 -15.7702 -2.72034 -2.70662 38.8082 4.34121 4.49315 27.6496 -0.65023 6.46662 2.09123 7.71917 -89.2411 11.4204 4.51522 1.05543 -0.242981 4.55728 0.855296 -22.8265 3.98903 2.36547 -2.81388 3.98903 2.36546 85.2471 -40.1776 -111.496 27.1697 -19.8962 -1.81166 -37.3517 14.8907 -99.8486 -29.2557 -2.54205 6.46004 -96.1887 -36.7363 64.7906 -53.2207 10.7636 46.2631 9.04926 2.20719 -68.6669 27.1482 1.73072 2.53443 18.5057 -15.1332 11.5827 2.03846 -18.138 -4.10593 
-34.4518 92.23 30.2088 1.5666 -70.2042 -11.3511 -171.487 48.0344 85.522 -23.6648 20.1997 -5.86265 51.5866 -6.57523 3.02728 48.0517 25.3932 14.1954 179.028 -6.22025 90.255 -26.2035 0.131595 -3.73036 39.922 3.37624 3.60085 26.1992 -0.647917 5.6915 2.11401 7.66368 -89.4002 11.5388 4.4863 0.734629 -0.124434 4.51428 0.53607 -22.7112 4.0578 2.05102 -2.69854 4.05781 2.05103 85.357 -40.5294 -111.174 28.514 -22.5714 0.433544 -33.8459 12.7421 -97.989 -29.3426 -2.28705 5.13891 -95.8428 -36.975 65.4738 -52.093 9.79918 44.3464 8.72359 0.698038 -71.4836 27.7031 1.8305 2.77053 19.1502 -14.8017 10.0926 1.68032 -17.3981 -3.5873 
-34.3792 91.1185 39.9907 0.149797 -72.5107 -10.632 -170.296 46.2421 85.5567 -25.618 18.6697 -6.35039 50.9903 -7.44391 1.23762 51.0628 29.8042 14.9915 179.465 -3.81301 92.6491 -43.3626 6.0152 -3.96119 41.5668 2.38198 2.60831 23.9289 -1.00349 6.65494 1.90718 7.74706 -89.5011 11.3748 4.02768 0.588704 -0.289978 4.04968 0.410576 -22.8674 3.66432 1.77349 -2.85475 3.66431 1.77348 84.15 -42.698 -112.332 29.8013 -23.5465 4.39736 -29.72 8.07033 -92.4125 -28.9716 -2.00685 3.93832 -95.8329 -37.8153 65.8277 -49.6811 8.35785 41.6327 9.18275 -0.243925 -74.3671 28.3853 2.39485 4.64203 16.4761 -14.5233 6.80957 3.52387 -16.0733 -3.04523 
-34.7244 89.4576 49.4788 1.46608 -75.7487 -8.83899 -170.426 42.4759 84.5185 -33.8508 23.4177 -6.43103 55.9272 0.0852514 12.944 46.5966 19.2037 -2.03643 177.694 1.13567 93.4858 -63.0602 11.4722 -3.20282 41.2467 1.42467 1.81156 22.7362 -1.19537 7.04557 1.4928 7.93277 -89.4603 11.0001 3.22182 0.76599 -0.666982 3.25241 0.623309 -23.2266 2.84258 1.69953 -3.21396 2.84258 1.69952 82.2771 -46.182 -113.954 30.0774 -23.4493 9.63731 -24.5987 3.49286 -86.8642 -29.4423 -2.17707 4.30308 -97.026 -39.756 64.633 -45.3016 6.92189 37.9902 10.0795 -0.644715 -76.4004 29.6522 1.9495 2.73024 12.0103 -13.8965 4.36222 6.89106 -14.8365 -3.64039 
-35.103 87.5673 58.5343 -7.59829 -77.6859 -19.0576 -170.24 38.0136 83.408 -44.2862 17.113 -4.97654 63.5629 9.90219 16.1554 48.5728 18.7862 -12.6202 175.756 10.1182 91.8776 -82.2375 13.9887 -3.66854 43.4611 -0.383032 0.167006 24.5274 -0.774231 5.14486 1.18624 8.22788 -89.1444 10.4021 2.75518 1.45992 -1.2666 2.81677 1.33718 -23.8115 2.18909 2.22058 -3.79882 2.18908 2.22056 80.3587 -49.5564 -115.535 30.2658 -21.492 14.0586 -23.028 -1.39653 -79.3142 -33.0369 -1.87147 2.36047 -98.8585 -42.382 62.7712 -38.7416 6.00316 32.1034 11.8306 -0.921156 -79.325 28.9355 2.48658 4.76368 11.398 -12.4797 2.27339 9.1207 -12.9809 -3.22107 
-36.0933 86.4847 67.3351 -10.9599 -77.2102 -25.4543 -169.789 32.6527 81.3605 -45.8656 18.8447 -5.33334 61.9919 11.8196 22.3445 58.4194 27.6598 -11.7895 174.612 23.5426 89.4344 -95.1276 15.5784 -4.31441 42.5147 -1.18425 -0.493222 27.2355 -0.574546 6.22359 0.627862 8.33129 -88.6476 10.1819 1.86803 2.52489 -1.48997 1.97731 2.44027 -24.0094 1.02323 2.96924 -3.99676 1.02323 2.96923 78.4579 -50.8704 -117.799 31.6246 -18.4173 19.2236 -21.106 -6.56636 -72.8938 -35.2117 -2.27546 3.38018 -100.113 -42.0698 60.6667 -34.0196 4.71945 24.1338 11.6169 -0.851095 -80.6865 34.1494 3.33097 5.99403 14.8054 -10.3822 1.72487 7.198 -10.7502 -2.85729 
-36.3335 86.7442 76.6392 -7.01866 -76.8803 -20.0527 -171.487 25.924 83.3966 -43.7626 20.9555 -4.31442 62.65 13.9066 23.7017 59.6374 30.2296 -7.82379 172.506 34.8887 91.4513 -98.6906 14.4381 -3.89334 43.7463 -1.07651 -0.435886 33.5332 0.174316 5.52389 0.085196 8.14862 -88.7718 10.5642 0.734202 2.37654 -1.10868 0.838053 2.34195 -23.6264 -0.0137471 2.48728 -3.61376 -0.0137543 2.48727 77.1954 -51.9959 -119.148 33.8402 -17.6335 27.9392 -14.3898 -5.33603 -69.8552 -36.5855 -2.03403 1.97851 -99.764 -40.8525 60.6928 -30.0587 2.73301 19.0688 11.06 -3.27454 -85.4491 33.4608 3.00074 5.16707 14.4384 -8.15133 1.61392 7.10051 -8.55421 -2.76507 
